<?xml version="1.0" encoding="UTF-8" standalone="no"?>
<svg
   xmlns:dc="http://purl.org/dc/elements/1.1/"
   xmlns:cc="http://creativecommons.org/ns#"
   xmlns:rdf="http://www.w3.org/1999/02/22-rdf-syntax-ns#"
   xmlns:svg="http://www.w3.org/2000/svg"
   xmlns="http://www.w3.org/2000/svg"
   viewBox="0 0 521.17334 160.26109"
   height="160.26109"
   width="521.17334"
   xml:space="preserve"
   id="svg2"
   version="1.1"><metadata
     id="metadata8"><rdf:RDF><cc:Work
         rdf:about=""><dc:format>image/svg+xml</dc:format><dc:type
           rdf:resource="http://purl.org/dc/dcmitype/StillImage" /></cc:Work></rdf:RDF></metadata><defs
     id="defs6"><clipPath
       id="clipPath80"
       clipPathUnits="userSpaceOnUse"><path
         id="path78"
         d="m 1209.63,304.602 c 12.17,6.91 21.72,15.359 28.66,25.328 6.92,9.968 11.63,20.91 14.12,32.82 2.49,11.898 3.74,22.852 3.74,32.809 0,9.972 -1.25,20.91 -3.74,32.832 -2.49,11.898 -7.2,22.847 -14.12,32.808 -6.94,9.973 -16.49,18.41 -28.66,25.34 -12.19,6.91 -27.7,10.383 -46.53,10.383 H 827.461 c -19.387,0 -35.031,-3.473 -46.938,-10.383 -11.918,-6.93 -21.328,-15.367 -28.246,-25.34 -6.929,-9.961 -11.632,-20.91 -14.125,-32.808 -2.492,-11.922 -3.738,-22.86 -3.738,-32.832 0,-9.957 1.246,-20.911 3.738,-32.809 2.493,-11.91 7.196,-22.852 14.125,-32.82 6.918,-9.969 16.328,-18.418 28.246,-25.328 11.907,-6.942 27.551,-10.383 46.938,-10.383 H 1163.1 c 18.83,0 34.34,3.441 46.53,10.383 z m 123.78,90.957 c 0,-21.047 -3.47,-42.227 -10.38,-63.547 -6.94,-21.332 -17.03,-40.703 -30.32,-58.153 -13.3,-17.461 -29.37,-31.718 -48.19,-42.789 -18.84,-11.082 -40.17,-16.621 -63.98,-16.621 H 801.711 c -22.719,1.102 -42.93,7.34 -60.648,18.699 -17.731,11.34 -32.821,25.614 -45.278,42.774 -12.465,17.18 -22.015,36.277 -28.664,57.34 -6.644,21.039 -9.965,41.808 -9.965,62.297 0,21.05 3.449,42.242 10.379,63.57 6.918,21.312 17.035,40.699 30.324,58.141 13.293,17.449 29.348,31.699 48.188,42.789 18.82,11.082 40.152,16.632 63.973,16.632 h 378.83 c 22.71,-1.14 42.92,-7.363 60.65,-18.711 17.72,-11.351 32.82,-25.621 45.28,-42.789 12.46,-17.171 22.01,-36.273 28.66,-57.312 6.64,-21.059 9.97,-41.828 9.97,-62.32 z" /></clipPath><linearGradient
       id="linearGradient86"
       spreadMethod="pad"
       gradientTransform="matrix(676.259,0,0,-676.259,657.153,395.57)"
       gradientUnits="userSpaceOnUse"
       y2="0"
       x2="1"
       y1="0"
       x1="0"><stop
         id="stop82"
         offset="0"
         style="stop-opacity:1;stop-color:#263e7f" /><stop
         id="stop84"
         offset="1"
         style="stop-opacity:1;stop-color:#3779c6" /></linearGradient><clipPath
       id="clipPath98"
       clipPathUnits="userSpaceOnUse"><path
         id="path96"
         d="m 2485.68,565.051 c 7.75,-7.77 11.63,-17.18 11.63,-28.262 0,-11.078 -3.88,-20.488 -11.63,-28.238 -7.76,-7.75 -17.17,-11.629 -28.25,-11.629 H 2211.52 V 254.328 c 0,-11.09 -3.88,-20.496 -11.63,-28.25 -7.76,-7.746 -17.18,-11.629 -28.24,-11.629 -11.09,0 -20.5,3.883 -28.26,11.629 -7.75,7.754 -11.63,17.16 -11.63,28.25 v 242.594 h -249.23 c -9.97,1.098 -18.56,5.398 -25.75,12.879 -7.2,7.469 -10.8,16.469 -10.8,26.988 0,11.082 3.86,20.492 11.63,28.262 7.75,7.75 17.16,11.64 28.25,11.64 h 571.57 c 11.08,0 20.49,-3.89 28.25,-11.64 z" /></clipPath><linearGradient
       id="linearGradient106"
       spreadMethod="pad"
       gradientTransform="matrix(651.331,0,0,-651.331,1845.98,395.57)"
       gradientUnits="userSpaceOnUse"
       y2="0"
       x2="1"
       y1="0"
       x1="0"><stop
         id="stop100"
         offset="0"
         style="stop-opacity:1;stop-color:#3779c6" /><stop
         id="stop102"
         offset="0.0996414"
         style="stop-opacity:1;stop-color:#3779c6" /><stop
         id="stop104"
         offset="1"
         style="stop-opacity:1;stop-color:#3779c6" /></linearGradient><clipPath
       id="clipPath116"
       clipPathUnits="userSpaceOnUse"><path
         id="path114"
         d="m 3219.24,226.078 c -7.75,-7.746 -17.16,-11.629 -28.24,-11.629 -11.08,0 -20.5,3.883 -28.24,11.629 -7.77,7.754 -11.64,17.16 -11.64,28.25 V 355.691 H 2660.13 V 254.328 c 0,-11.09 -3.87,-20.496 -11.63,-28.25 -7.76,-7.746 -17.17,-11.629 -28.24,-11.629 -11.09,0 -20.5,3.883 -28.25,11.629 -7.77,7.754 -11.63,17.16 -11.63,28.25 v 282.461 c 0,11.082 3.86,20.492 11.63,28.262 7.75,7.75 17.16,11.64 28.25,11.64 11.07,0 20.48,-3.89 28.24,-11.64 7.76,-7.77 11.63,-17.18 11.63,-28.262 v -101.34 h 490.99 v 101.34 c 0,11.082 3.87,20.492 11.64,28.262 7.74,7.75 17.16,11.64 28.24,11.64 11.08,0 20.49,-3.89 28.24,-11.64 7.76,-7.77 11.64,-17.18 11.64,-28.262 V 254.328 c 0,-11.09 -3.88,-20.496 -11.64,-28.25 z" /></clipPath><linearGradient
       id="linearGradient122"
       spreadMethod="pad"
       gradientTransform="matrix(650.5,0,0,-650.5,2580.38,395.57)"
       gradientUnits="userSpaceOnUse"
       y2="0"
       x2="1"
       y1="0"
       x1="0"><stop
         id="stop118"
         offset="0"
         style="stop-opacity:1;stop-color:#3475c1" /><stop
         id="stop120"
         offset="1"
         style="stop-opacity:1;stop-color:#63b5e4" /></linearGradient><clipPath
       id="clipPath134"
       clipPathUnits="userSpaceOnUse"><path
         id="path132"
         d="m 1666.16,940.148 -9.04,30.653 304.93,89.959 9.04,-30.64 z" /></clipPath><linearGradient
       id="linearGradient140"
       spreadMethod="pad"
       gradientTransform="matrix(313.978,0,0,-313.978,1657.12,1000.46)"
       gradientUnits="userSpaceOnUse"
       y2="0"
       x2="1"
       y1="0"
       x1="0"><stop
         id="stop136"
         offset="0"
         style="stop-opacity:1;stop-color:#c81e27" /><stop
         id="stop138"
         offset="1"
         style="stop-opacity:1;stop-color:#77151b" /></linearGradient><clipPath
       id="clipPath150"
       clipPathUnits="userSpaceOnUse"><path
         id="path148"
         d="m 1614.51,723.539 -8.8,30.723 669.8,191.75 -647.82,190.818 9.02,30.66 753.38,-221.92 z" /></clipPath><linearGradient
       id="linearGradient156"
       spreadMethod="pad"
       gradientTransform="matrix(784.383,-1e-7,-1e-7,-784.383,1605.71,945.52)"
       gradientUnits="userSpaceOnUse"
       y2="0"
       x2="1"
       y1="0"
       x1="0"><stop
         id="stop152"
         offset="0"
         style="stop-opacity:1;stop-color:#c81e27" /><stop
         id="stop154"
         offset="1"
         style="stop-opacity:1;stop-color:#77151b" /></linearGradient><clipPath
       id="clipPath166"
       clipPathUnits="userSpaceOnUse"><path
         id="path164"
         d="m 1923.06,1051.2 c 0,-27.8 22.54,-50.32 50.33,-50.32 27.79,0 50.33,22.52 50.33,50.32 0,27.8 -22.54,50.33 -50.33,50.33 -27.79,0 -50.33,-22.53 -50.33,-50.33 z" /></clipPath><radialGradient
       id="radialGradient174"
       spreadMethod="pad"
       gradientTransform="matrix(-50.3263,0,0,-50.3263,1973.39,1051.2)"
       gradientUnits="userSpaceOnUse"
       r="1"
       cy="0"
       cx="0"
       fy="0"
       fx="0"><stop
         id="stop168"
         offset="0"
         style="stop-opacity:1;stop-color:#d53130" /><stop
         id="stop170"
         offset="0.867953"
         style="stop-opacity:1;stop-color:#9f1c22" /><stop
         id="stop172"
         offset="1"
         style="stop-opacity:1;stop-color:#9f1c22" /></radialGradient><clipPath
       id="clipPath184"
       clipPathUnits="userSpaceOnUse"><path
         id="path182"
         d="m 1923.37,839.102 c 0,-27.793 22.52,-50.332 50.32,-50.332 27.8,0 50.32,22.539 50.32,50.332 0,27.789 -22.52,50.32 -50.32,50.32 -27.8,0 -50.32,-22.531 -50.32,-50.32 z" /></clipPath><radialGradient
       id="radialGradient192"
       spreadMethod="pad"
       gradientTransform="matrix(-50.3263,0,0,-50.3263,1973.69,839.1)"
       gradientUnits="userSpaceOnUse"
       r="1"
       cy="0"
       cx="0"
       fy="0"
       fx="0"><stop
         id="stop186"
         offset="0"
         style="stop-opacity:1;stop-color:#d53130" /><stop
         id="stop188"
         offset="0.867953"
         style="stop-opacity:1;stop-color:#9f1c22" /><stop
         id="stop190"
         offset="1"
         style="stop-opacity:1;stop-color:#9f1c22" /></radialGradient><clipPath
       id="clipPath202"
       clipPathUnits="userSpaceOnUse"><path
         id="path200"
         d="m 1573.58,1151.65 c 0,-27.81 22.53,-50.34 50.33,-50.34 27.79,0 50.32,22.53 50.32,50.34 0,27.79 -22.53,50.32 -50.32,50.32 -27.8,0 -50.33,-22.53 -50.33,-50.32 z" /></clipPath><radialGradient
       id="radialGradient210"
       spreadMethod="pad"
       gradientTransform="matrix(-50.3263,0,0,-50.3263,1623.91,1151.64)"
       gradientUnits="userSpaceOnUse"
       r="1"
       cy="0"
       cx="0"
       fy="0"
       fx="0"><stop
         id="stop204"
         offset="0"
         style="stop-opacity:1;stop-color:#d53130" /><stop
         id="stop206"
         offset="0.153011"
         style="stop-opacity:1;stop-color:#d53130" /><stop
         id="stop208"
         offset="1"
         style="stop-opacity:1;stop-color:#9f1c22" /></radialGradient><clipPath
       id="clipPath220"
       clipPathUnits="userSpaceOnUse"><path
         id="path218"
         d="m 1573.58,949.461 c 0,-27.789 22.53,-50.32 50.33,-50.32 27.79,0 50.32,22.531 50.32,50.32 0,27.789 -22.53,50.328 -50.32,50.328 -27.8,0 -50.33,-22.539 -50.33,-50.328 z" /></clipPath><radialGradient
       id="radialGradient228"
       spreadMethod="pad"
       gradientTransform="matrix(-50.3263,0,0,-50.3263,1623.91,949.46)"
       gradientUnits="userSpaceOnUse"
       r="1"
       cy="0"
       cx="0"
       fy="0"
       fx="0"><stop
         id="stop222"
         offset="0"
         style="stop-opacity:1;stop-color:#d53130" /><stop
         id="stop224"
         offset="0.153011"
         style="stop-opacity:1;stop-color:#d53130" /><stop
         id="stop226"
         offset="1"
         style="stop-opacity:1;stop-color:#9f1c22" /></radialGradient><clipPath
       id="clipPath238"
       clipPathUnits="userSpaceOnUse"><path
         id="path236"
         d="m 1573.28,743.98 c 0,-27.789 22.53,-50.32 50.32,-50.32 27.8,0 50.33,22.531 50.33,50.32 0,27.79 -22.53,50.329 -50.33,50.329 -27.79,0 -50.32,-22.539 -50.32,-50.329 z" /></clipPath><radialGradient
       id="radialGradient246"
       spreadMethod="pad"
       gradientTransform="matrix(-50.3263,0,0,-50.3263,1623.61,743.98)"
       gradientUnits="userSpaceOnUse"
       r="1"
       cy="0"
       cx="0"
       fy="0"
       fx="0"><stop
         id="stop240"
         offset="0"
         style="stop-opacity:1;stop-color:#d53130" /><stop
         id="stop242"
         offset="0.153011"
         style="stop-opacity:1;stop-color:#d53130" /><stop
         id="stop244"
         offset="1"
         style="stop-opacity:1;stop-color:#9f1c22" /></radialGradient><clipPath
       id="clipPath256"
       clipPathUnits="userSpaceOnUse"><path
         id="path254"
         d="m 2244.83,952.422 c 0,-39.711 32.19,-71.902 71.9,-71.902 39.7,0 71.89,32.191 71.89,71.902 0,39.707 -32.19,71.888 -71.89,71.888 -39.71,0 -71.9,-32.181 -71.9,-71.888 z" /></clipPath><radialGradient
       id="radialGradient262"
       spreadMethod="pad"
       gradientTransform="matrix(-71.8947,0,0,-71.8947,2316.73,952.42)"
       gradientUnits="userSpaceOnUse"
       r="1"
       cy="0"
       cx="0"
       fy="0"
       fx="0"><stop
         id="stop258"
         offset="0"
         style="stop-opacity:1;stop-color:#9f1c22" /><stop
         id="stop260"
         offset="1"
         style="stop-opacity:1;stop-color:#77151b" /></radialGradient></defs><g
     transform="matrix(1.3333333,0,0,-1.3333333,0,160.26266)"
     id="g10"><g
       transform="scale(0.1)"
       id="g12"><path
         id="path14"
         style="fill:#5bc9f4;fill-opacity:1;fill-rule:nonzero;stroke:none"
         d="m 278.008,107.27 h 25.621 l 27.57,-74.27 27.567,74.27 h 25.011 L 341.141,1.05859 H 320.652 L 278.008,107.27" /><path
         id="path16"
         style="fill:#5bc9f4;fill-opacity:1;fill-rule:nonzero;stroke:none"
         d="m 404.043,107.27 h 23.219 V 1.80859 H 404.043 V 107.27" /><path
         id="path18"
         style="fill:#5bc9f4;fill-opacity:1;fill-rule:nonzero;stroke:none"
         d="m 503.309,56.0391 c 11.308,0 17.781,6.0312 17.781,14.9218 v 0.3204 c 0,9.9296 -6.922,15.039 -18.238,15.039 H 479.813 V 56.0391 Z m -46.7,51.2309 h 48.211 c 13.403,0 23.809,-3.77 30.739,-10.6919 5.863,-5.8789 9.031,-14.1679 9.031,-24.0976 v -0.3203 c 0,-17.0196 -9.188,-27.711 -22.594,-32.6797 L 547.754,1.80859 H 520.641 L 498.035,35.5586 H 479.813 V 1.80859 H 456.609 V 107.27" /><path
         id="path20"
         style="fill:#5bc9f4;fill-opacity:1;fill-rule:nonzero;stroke:none"
         d="M 593.035,85.8789 H 560.957 V 107.27 h 87.367 V 85.8789 H 616.238 V 1.80859 H 593.035 V 85.8789" /><path
         id="path22"
         style="fill:#5bc9f4;fill-opacity:1;fill-rule:nonzero;stroke:none"
         d="M 667.41,47.0117 V 107.27 h 23.203 V 47.6211 c 0,-17.1719 8.59,-26.0703 22.742,-26.0703 14.172,0 22.75,8.5781 22.75,25.3008 V 107.27 h 23.204 V 47.7617 c 0,-31.9297 -17.93,-47.601544 -46.246,-47.601544 -28.321,0 -45.653,15.820344 -45.653,46.851544" /><path
         id="path24"
         style="fill:#5bc9f4;fill-opacity:1;fill-rule:nonzero;stroke:none"
         d="M 846.492,45.9492 832.48,80.1484 818.469,45.9492 Z M 822.07,108.031 h 21.407 L 888.664,1.80859 H 864.422 L 854.777,25.4688 H 810.188 L 800.543,1.80859 H 776.875 L 822.07,108.031" /><path
         id="path26"
         style="fill:#5bc9f4;fill-opacity:1;fill-rule:nonzero;stroke:none"
         d="m 907.887,107.27 h 23.199 V 22.9102 h 52.578 V 1.80859 H 907.887 V 107.27" /><path
         id="path28"
         style="fill:#5bc9f4;fill-opacity:1;fill-rule:nonzero;stroke:none"
         d="m 1135.46,54.2305 v 0.3203 c 0,18.0586 -13.26,33.1289 -31.95,33.1289 -18.68,0 -31.63,-14.75 -31.63,-32.8399 v -0.289 c 0,-18.0899 13.25,-33.1602 31.94,-33.1602 18.67,0 31.64,14.7813 31.64,32.8399 z m -87.84,0 v 0.3203 c 0,29.9687 23.65,54.5272 56.2,54.5272 32.54,0 55.88,-24.2499 55.88,-54.2382 v -0.289 c 0,-29.9922 -23.65,-54.5390812 -56.19,-54.5390812 -32.54,0 -55.89,24.2499812 -55.89,54.2187812" /><path
         id="path30"
         style="fill:#5bc9f4;fill-opacity:1;fill-rule:nonzero;stroke:none"
         d="m 1183.29,107.27 h 23.21 V 22.9102 h 52.57 V 1.80859 h -75.78 V 107.27" /><path
         id="path32"
         style="fill:#5bc9f4;fill-opacity:1;fill-rule:nonzero;stroke:none"
         d="m 1304.07,85.8789 h -32.09 V 107.27 h 87.39 V 85.8789 h -32.1 V 1.80859 h -23.2 V 85.8789" /><path
         id="path34"
         style="fill:#5bc9f4;fill-opacity:1;fill-rule:nonzero;stroke:none"
         d="m 1428.28,107.27 h 23.2 V 65.5391 h 42.8 V 107.27 h 23.2 V 1.80859 h -23.2 V 44.1406 h -42.8 V 1.80859 h -23.2 V 107.27" /><path
         id="path36"
         style="fill:#5bc9f4;fill-opacity:1;fill-rule:nonzero;stroke:none"
         d="m 1606.3,45.9492 -14.01,34.1992 -14.01,-34.1992 z m -24.4,62.0818 h 21.39 l 45.2,-106.22241 h -24.27 l -9.63,23.66021 H 1570 l -9.65,-23.66021 h -23.65 l 45.2,106.22241" /><path
         id="path38"
         style="fill:#5bc9f4;fill-opacity:1;fill-rule:nonzero;stroke:none"
         d="m 1714.41,56.0391 c 11.31,0 17.78,6.0312 17.78,14.9218 v 0.3204 c 0,9.9296 -6.93,15.039 -18.23,15.039 h -23.05 V 56.0391 Z m -46.7,51.2309 h 48.21 c 13.4,0 23.81,-3.77 30.74,-10.6919 5.87,-5.8789 9.03,-14.1679 9.03,-24.0976 v -0.3203 c 0,-17.0196 -9.19,-27.711 -22.59,-32.6797 l 25.76,-37.67191 h -27.12 l -22.61,33.75001 h -18.22 V 1.80859 h -23.2 V 107.27" /><path
         id="path40"
         style="fill:#5bc9f4;fill-opacity:1;fill-rule:nonzero;stroke:none"
         d="M 1802.78,86.3203 V 22.75 h 17.94 c 18.97,0 31.78,12.8086 31.78,31.4805 v 0.3203 c 0,18.668 -12.81,31.7695 -31.78,31.7695 z m -23.2,20.9497 h 41.14 c 33.14,0 56.04,-22.7505 56.04,-52.4302 v -0.289 c 0,-29.6914 -22.9,-52.74221 -56.04,-52.74221 h -41.14 V 107.27" /><path
         id="path42"
         style="fill:#5bc9f4;fill-opacity:1;fill-rule:nonzero;stroke:none"
         d="m 1892.21,107.27 h 24.85 l 21.85,-71.4106 23.65,71.7106 h 19.89 l 23.65,-71.7106 21.85,71.4106 h 24.26 L 2016.2,1.05859 h -20.19 L 1972.2,70.0586 1948.41,1.05859 h -20.19 L 1892.21,107.27" /><path
         id="path44"
         style="fill:#5bc9f4;fill-opacity:1;fill-rule:nonzero;stroke:none"
         d="m 2132.87,45.9492 -14.01,34.1992 -14.01,-34.1992 z m -24.42,62.0818 h 21.41 L 2175.05,1.80859 h -24.25 l -9.64,23.66021 h -44.59 l -9.64,-23.66021 h -23.67 l 45.19,106.22241" /><path
         id="path46"
         style="fill:#5bc9f4;fill-opacity:1;fill-rule:nonzero;stroke:none"
         d="m 2240.98,56.0391 c 11.3,0 17.77,6.0312 17.77,14.9218 v 0.3204 c 0,9.9296 -6.93,15.039 -18.22,15.039 h -23.06 V 56.0391 Z m -46.71,51.2309 h 48.21 c 13.41,0 23.81,-3.77 30.73,-10.6919 5.89,-5.8789 9.05,-14.1679 9.05,-24.0976 v -0.3203 c 0,-17.0196 -9.19,-27.711 -22.61,-32.6797 l 25.77,-37.67191 h -27.12 l -22.6,33.75001 h -18.23 V 1.80859 h -23.2 V 107.27" /><path
         id="path48"
         style="fill:#5bc9f4;fill-opacity:1;fill-rule:nonzero;stroke:none"
         d="m 2306.15,107.27 h 79.54 V 86.6289 H 2329.2 V 65.2305 h 49.72 V 44.6016 H 2329.2 V 22.4609 h 57.26 V 1.80859 h -80.31 V 107.27" /><path
         id="path50"
         style="fill:#5bc9f4;fill-opacity:1;fill-rule:nonzero;stroke:none"
         d="m 2518.79,45.9492 -14.01,34.1992 -14.01,-34.1992 z m -24.4,62.0818 h 21.39 l 45.2,-106.22241 h -24.26 l -9.64,23.66021 h -44.59 l -9.65,-23.66021 h -23.65 l 45.2,106.22241" /><path
         id="path52"
         style="fill:#5bc9f4;fill-opacity:1;fill-rule:nonzero;stroke:none"
         d="m 2629.62,45.3594 h -26.83 v -23.211 h 27.57 c 10.25,0 16.43,3.6133 16.43,11.4414 v 0.3086 c 0,7.0899 -5.27,11.461 -17.17,11.461 z m 11.29,30.7304 c 0,6.9297 -5.42,10.8516 -15.21,10.8516 h -22.91 V 64.6406 h 21.4 c 10.24,0 16.72,3.3086 16.72,11.1407 z M 2580.2,107.27 h 48.96 c 12.06,0 21.55,-3.309 27.57,-9.3286 4.82,-4.832 7.24,-10.7109 7.24,-17.9297 v -0.3203 c 0,-11.9023 -6.33,-18.5117 -13.87,-22.7422 12.22,-4.6679 19.74,-11.75 19.74,-25.9179 v -0.293 c 0,-19.2891 -15.67,-28.92971 -39.48,-28.92971 H 2580.2 V 107.27" /><path
         id="path54"
         style="fill:#5bc9f4;fill-opacity:1;fill-rule:nonzero;stroke:none"
         d="m 2684.69,17.1797 13.71,16.4101 c 9.49,-7.8281 19.44,-12.789 31.49,-12.789 9.5,0 15.23,3.7578 15.23,9.9375 v 0.293 c 0,5.8906 -3.62,8.8984 -21.25,13.4179 -21.25,5.4219 -34.95,11.3008 -34.95,32.2422 v 0.2891 c 0,19.1484 15.37,31.8085 36.91,31.8085 15.35,0 28.48,-4.828 39.17,-13.4101 l -12.05,-17.4883 c -9.35,6.4883 -18.53,10.4102 -27.43,10.4102 -8.89,0 -13.56,-4.082 -13.56,-9.1914 v -0.3086 c 0,-6.9414 4.53,-9.1914 22.75,-13.8594 21.39,-5.5703 33.45,-13.2617 33.45,-31.6406 V 33 c 0,-20.9297 -15.98,-32.699219 -38.73,-32.699219 -15.95,0 -32.09,5.589849 -44.74,16.878919" /><path
         id="path56"
         style="fill:#5bc9f4;fill-opacity:1;fill-rule:nonzero;stroke:none"
         d="m 2815.88,85.8789 h -32.1 V 107.27 h 87.39 V 85.8789 h -32.1 V 1.80859 h -23.19 V 85.8789" /><path
         id="path58"
         style="fill:#5bc9f4;fill-opacity:1;fill-rule:nonzero;stroke:none"
         d="m 2938.6,56.0391 c 11.31,0 17.79,6.0312 17.79,14.9218 v 0.3204 c 0,9.9296 -6.93,15.039 -18.24,15.039 H 2915.1 V 56.0391 Z m -46.7,51.2309 h 48.21 c 13.41,0 23.81,-3.77 30.74,-10.6919 5.87,-5.8789 9.03,-14.1679 9.03,-24.0976 v -0.3203 c 0,-17.0196 -9.19,-27.711 -22.59,-32.6797 l 25.76,-37.67191 h -27.12 l -22.6,33.75001 H 2915.1 V 1.80859 h -23.2 V 107.27" /><path
         id="path60"
         style="fill:#5bc9f4;fill-opacity:1;fill-rule:nonzero;stroke:none"
         d="m 3064.34,45.9492 -14.01,34.1992 -14.02,-34.1992 z m -24.4,62.0818 h 21.38 l 45.2,-106.22241 h -24.26 l -9.64,23.66021 h -44.59 l -9.64,-23.66021 h -23.65 l 45.2,106.22241" /><path
         id="path62"
         style="fill:#5bc9f4;fill-opacity:1;fill-rule:nonzero;stroke:none"
         d="m 3121.08,54.2305 v 0.3203 c 0,29.9687 22.59,54.5272 54.99,54.5272 19.89,0 31.79,-6.629 41.57,-16.2694 l -14.76,-17.0273 c -8.14,7.3789 -16.42,11.8984 -26.97,11.8984 -17.77,0 -30.58,-14.75 -30.58,-32.8399 v -0.289 c 0,-18.0899 12.51,-33.1602 30.58,-33.1602 12.06,0 19.44,4.8282 27.72,12.3594 l 14.76,-14.918 C 3207.55,7.23828 3195.5,0.0117188 3175.16,0.0117188 c -31.03,0 -54.08,23.9374812 -54.08,54.2187812" /><path
         id="path64"
         style="fill:#5bc9f4;fill-opacity:1;fill-rule:nonzero;stroke:none"
         d="m 3264.43,85.8789 h -32.08 V 107.27 h 87.38 V 85.8789 h -32.1 V 1.80859 h -23.2 V 85.8789" /><path
         id="path66"
         style="fill:#5bc9f4;fill-opacity:1;fill-rule:nonzero;stroke:none"
         d="m 3341.52,107.27 h 23.2 V 1.80859 h -23.2 V 107.27" /><path
         id="path68"
         style="fill:#5bc9f4;fill-opacity:1;fill-rule:nonzero;stroke:none"
         d="m 3477.25,54.2305 v 0.3203 c 0,18.0586 -13.26,33.1289 -31.95,33.1289 -18.68,0 -31.63,-14.75 -31.63,-32.8399 v -0.289 c 0,-18.0899 13.25,-33.1602 31.94,-33.1602 18.67,0 31.64,14.7813 31.64,32.8399 z m -87.84,0 v 0.3203 c 0,29.9687 23.65,54.5272 56.2,54.5272 32.54,0 55.88,-24.2499 55.88,-54.2382 v -0.289 c 0,-29.9922 -23.65,-54.5390812 -56.19,-54.5390812 -32.54,0 -55.89,24.2499812 -55.89,54.2187812" /><path
         id="path70"
         style="fill:#5bc9f4;fill-opacity:1;fill-rule:nonzero;stroke:none"
         d="m 3525.08,107.27 h 21.39 l 49.42,-64.9184 V 107.27 h 22.91 V 1.80859 h -19.74 L 3547.98,68.8516 V 1.80859 h -22.9 V 107.27" /><path
         id="path72"
         style="fill:#20497f;fill-opacity:1;fill-rule:nonzero;stroke:none"
         d="m 524.227,561.719 c 8.304,9.98 18.546,14.972 30.734,14.972 11.074,0 20.488,-3.89 28.25,-11.64 7.746,-7.77 11.629,-17.18 11.629,-28.262 0,-9.969 -2.774,-17.988 -8.305,-24.078 l -0.836,-0.832 -201.043,-270.84 c -9.972,-12.738 -22.582,-23.129 -37.804,-31.148 -15.239,-8.039 -31.715,-12.051 -49.43,-12.051 -16.613,0 -32.27,3.601 -46.938,10.801 -14.687,7.191 -27,17.16 -36.972,29.91 l -201.8792,270 C 8.30859,512.43 5.53516,516.719 3.32031,521.43 1.10547,526.129 0,531.262 0,536.789 c 0,11.082 3.86719,20.492 11.6328,28.262 7.75,7.75 17.1563,11.64 28.2422,11.64 13.2969,0 23.8086,-5.281 31.5703,-15.8 L 265.02,302.52 c 3.867,-4.45 8.722,-9.282 14.539,-14.551 5.812,-5.258 11.761,-7.887 17.863,-7.887 6.086,0 12.043,2.629 17.859,7.887 5.813,5.269 10.383,10.101 13.711,14.551 l 195.235,259.199" /><g
         id="g74"><g
           clip-path="url(#clipPath80)"
           id="g76"><path
             id="path88"
             style="fill:url(#linearGradient86);fill-opacity:1;fill-rule:nonzero;stroke:none"
             d="m 1209.63,304.602 c 12.17,6.91 21.72,15.359 28.66,25.328 6.92,9.968 11.63,20.91 14.12,32.82 2.49,11.898 3.74,22.852 3.74,32.809 0,9.972 -1.25,20.91 -3.74,32.832 -2.49,11.898 -7.2,22.847 -14.12,32.808 -6.94,9.973 -16.49,18.41 -28.66,25.34 -12.19,6.91 -27.7,10.383 -46.53,10.383 H 827.461 c -19.387,0 -35.031,-3.473 -46.938,-10.383 -11.918,-6.93 -21.328,-15.367 -28.246,-25.34 -6.929,-9.961 -11.632,-20.91 -14.125,-32.808 -2.492,-11.922 -3.738,-22.86 -3.738,-32.832 0,-9.957 1.246,-20.911 3.738,-32.809 2.493,-11.91 7.196,-22.852 14.125,-32.82 6.918,-9.969 16.328,-18.418 28.246,-25.328 11.907,-6.942 27.551,-10.383 46.938,-10.383 H 1163.1 c 18.83,0 34.34,3.441 46.53,10.383 z m 123.78,90.957 c 0,-21.047 -3.47,-42.227 -10.38,-63.547 -6.94,-21.332 -17.03,-40.703 -30.32,-58.153 -13.3,-17.461 -29.37,-31.718 -48.19,-42.789 -18.84,-11.082 -40.17,-16.621 -63.98,-16.621 H 801.711 c -22.719,1.102 -42.93,7.34 -60.648,18.699 -17.731,11.34 -32.821,25.614 -45.278,42.774 -12.465,17.18 -22.015,36.277 -28.664,57.34 -6.644,21.039 -9.965,41.808 -9.965,62.297 0,21.05 3.449,42.242 10.379,63.57 6.918,21.312 17.035,40.699 30.324,58.141 13.293,17.449 29.348,31.699 48.188,42.789 18.82,11.082 40.152,16.632 63.973,16.632 h 378.83 c 22.71,-1.14 42.92,-7.363 60.65,-18.711 17.72,-11.351 32.82,-25.621 45.28,-42.789 12.46,-17.171 22.01,-36.273 28.66,-57.312 6.64,-21.059 9.97,-41.828 9.97,-62.32" /></g></g><path
         id="path90"
         style="fill:#3779c6;fill-opacity:1;fill-rule:nonzero;stroke:none"
         d="m 1486.26,223.18 c -13.84,5.808 -25.89,13.699 -36.13,23.672 -10.26,9.968 -18.43,21.597 -24.51,34.898 -6.1,13.301 -9.14,27.691 -9.14,43.199 v 211.84 c 0,11.082 3.86,20.492 11.63,28.262 7.75,7.75 17.16,11.64 28.24,11.64 10.52,0 19.8,-3.89 27.84,-11.64 8.03,-7.77 12.04,-17.18 12.04,-28.262 v -211.84 c 0,-8.301 3.19,-15.508 9.55,-21.597 6.37,-6.114 13.72,-9.133 22.02,-9.133 h 498.47 c 11.07,0 20.49,-3.891 28.26,-11.637 7.74,-7.773 11.62,-17.184 11.62,-28.254 0,-11.09 -3.88,-20.496 -11.62,-28.25 -7.77,-7.746 -17.19,-11.629 -28.26,-11.629 H 1530.3 c -15.52,0 -30.2,2.91 -44.04,8.731" /><g
         id="g92"><g
           clip-path="url(#clipPath98)"
           id="g94"><path
             id="path108"
             style="fill:url(#linearGradient106);fill-opacity:1;fill-rule:nonzero;stroke:none"
             d="m 2485.68,565.051 c 7.75,-7.77 11.63,-17.18 11.63,-28.262 0,-11.078 -3.88,-20.488 -11.63,-28.238 -7.76,-7.75 -17.17,-11.629 -28.25,-11.629 H 2211.52 V 254.328 c 0,-11.09 -3.88,-20.496 -11.63,-28.25 -7.76,-7.746 -17.18,-11.629 -28.24,-11.629 -11.09,0 -20.5,3.883 -28.26,11.629 -7.75,7.754 -11.63,17.16 -11.63,28.25 v 242.594 h -249.23 c -9.97,1.098 -18.56,5.398 -25.75,12.879 -7.2,7.469 -10.8,16.469 -10.8,26.988 0,11.082 3.86,20.492 11.63,28.262 7.75,7.75 17.16,11.64 28.25,11.64 h 571.57 c 11.08,0 20.49,-3.89 28.25,-11.64" /></g></g><g
         id="g110"><g
           clip-path="url(#clipPath116)"
           id="g112"><path
             id="path124"
             style="fill:url(#linearGradient122);fill-opacity:1;fill-rule:nonzero;stroke:none"
             d="m 3219.24,226.078 c -7.75,-7.746 -17.16,-11.629 -28.24,-11.629 -11.08,0 -20.5,3.883 -28.24,11.629 -7.77,7.754 -11.64,17.16 -11.64,28.25 V 355.691 H 2660.13 V 254.328 c 0,-11.09 -3.87,-20.496 -11.63,-28.25 -7.76,-7.746 -17.17,-11.629 -28.24,-11.629 -11.09,0 -20.5,3.883 -28.25,11.629 -7.77,7.754 -11.63,17.16 -11.63,28.25 v 282.461 c 0,11.082 3.86,20.492 11.63,28.262 7.75,7.75 17.16,11.64 28.25,11.64 11.07,0 20.48,-3.89 28.24,-11.64 7.76,-7.77 11.63,-17.18 11.63,-28.262 v -101.34 h 490.99 v 101.34 c 0,11.082 3.87,20.492 11.64,28.262 7.74,7.75 17.16,11.64 28.24,11.64 11.08,0 20.49,-3.89 28.24,-11.64 7.76,-7.77 11.64,-17.18 11.64,-28.262 V 254.328 c 0,-11.09 -3.88,-20.496 -11.64,-28.25" /></g></g><path
         id="path126"
         style="fill:#63b6e4;fill-opacity:1;fill-rule:nonzero;stroke:none"
         d="m 3384.57,229.41 c -8.3,-9.969 -18.56,-14.961 -30.74,-14.961 -11.08,0 -20.49,3.883 -28.24,11.629 -7.77,7.754 -11.63,17.16 -11.63,28.25 0,9.973 2.76,18 8.3,24.094 l 201.88,271.668 c 9.41,12.738 21.87,23.121 37.38,31.16 15.5,8.012 32.12,12.051 49.84,12.051 16.62,0 32.41,-3.621 47.37,-10.801 14.95,-7.211 27.13,-17.18 36.55,-29.918 l 201.88,-270 c 3.32,-3.883 6.09,-8.184 8.31,-12.883 2.21,-4.711 3.33,-9.84 3.33,-15.371 0,-11.09 -3.89,-20.496 -11.64,-28.25 -7.77,-7.746 -17.17,-11.629 -28.24,-11.629 -13.3,0 -23.83,5.262 -31.57,15.789 l -193.58,258.371 c -3.87,4.422 -8.72,9.282 -14.54,14.551 -5.82,5.25 -11.76,7.891 -17.87,7.891 -6.09,0 -12.03,-2.641 -17.85,-7.891 -5.81,-5.269 -10.39,-10.129 -13.71,-14.551 L 3384.57,229.41" /><g
         id="g128"><g
           clip-path="url(#clipPath134)"
           id="g130"><path
             id="path142"
             style="fill:url(#linearGradient140);fill-opacity:1;fill-rule:nonzero;stroke:none"
             d="m 1666.16,940.148 -9.04,30.653 304.93,89.959 9.04,-30.64 -304.93,-89.972" /></g></g><g
         id="g144"><g
           clip-path="url(#clipPath150)"
           id="g146"><path
             id="path158"
             style="fill:url(#linearGradient156);fill-opacity:1;fill-rule:nonzero;stroke:none"
             d="m 1614.51,723.539 -8.8,30.723 669.8,191.75 -647.82,190.818 9.02,30.66 753.38,-221.92 -775.58,-222.031" /></g></g><g
         id="g160"><g
           clip-path="url(#clipPath166)"
           id="g162"><path
             id="path176"
             style="fill:url(#radialGradient174);fill-opacity:1;fill-rule:nonzero;stroke:none"
             d="m 1923.06,1051.2 c 0,-27.8 22.54,-50.32 50.33,-50.32 27.79,0 50.33,22.52 50.33,50.32 0,27.8 -22.54,50.33 -50.33,50.33 -27.79,0 -50.33,-22.53 -50.33,-50.33" /></g></g><g
         id="g178"><g
           clip-path="url(#clipPath184)"
           id="g180"><path
             id="path194"
             style="fill:url(#radialGradient192);fill-opacity:1;fill-rule:nonzero;stroke:none"
             d="m 1923.37,839.102 c 0,-27.793 22.52,-50.332 50.32,-50.332 27.8,0 50.32,22.539 50.32,50.332 0,27.789 -22.52,50.32 -50.32,50.32 -27.8,0 -50.32,-22.531 -50.32,-50.32" /></g></g><g
         id="g196"><g
           clip-path="url(#clipPath202)"
           id="g198"><path
             id="path212"
             style="fill:url(#radialGradient210);fill-opacity:1;fill-rule:nonzero;stroke:none"
             d="m 1573.58,1151.65 c 0,-27.81 22.53,-50.34 50.33,-50.34 27.79,0 50.32,22.53 50.32,50.34 0,27.79 -22.53,50.32 -50.32,50.32 -27.8,0 -50.33,-22.53 -50.33,-50.32" /></g></g><g
         id="g214"><g
           clip-path="url(#clipPath220)"
           id="g216"><path
             id="path230"
             style="fill:url(#radialGradient228);fill-opacity:1;fill-rule:nonzero;stroke:none"
             d="m 1573.58,949.461 c 0,-27.789 22.53,-50.32 50.33,-50.32 27.79,0 50.32,22.531 50.32,50.32 0,27.789 -22.53,50.328 -50.32,50.328 -27.8,0 -50.33,-22.539 -50.33,-50.328" /></g></g><g
         id="g232"><g
           clip-path="url(#clipPath238)"
           id="g234"><path
             id="path248"
             style="fill:url(#radialGradient246);fill-opacity:1;fill-rule:nonzero;stroke:none"
             d="m 1573.28,743.98 c 0,-27.789 22.53,-50.32 50.32,-50.32 27.8,0 50.33,22.531 50.33,50.32 0,27.79 -22.53,50.329 -50.33,50.329 -27.79,0 -50.32,-22.539 -50.32,-50.329" /></g></g><g
         id="g250"><g
           clip-path="url(#clipPath256)"
           id="g252"><path
             id="path264"
             style="fill:url(#radialGradient262);fill-opacity:1;fill-rule:nonzero;stroke:none"
             d="m 2244.83,952.422 c 0,-39.711 32.19,-71.902 71.9,-71.902 39.7,0 71.89,32.191 71.89,71.902 0,39.707 -32.19,71.888 -71.89,71.888 -39.71,0 -71.9,-32.181 -71.9,-71.888" /></g></g></g></g></svg>